<?xml version="1.0" encoding="UTF-8"?>
<svg id="Layer_1" data-name="Layer 1" xmlns="http://www.w3.org/2000/svg" viewBox="0 0 268.84 274.82">
  <defs>
    <style>
      .cls-1 {
        fill: #c1bef5;
      }

      .cls-2 {
        fill: #586add;
      }

      .cls-3 {
        fill: #010756;
      }
    </style>
  </defs>
  <g id="logo">
    <path d="M228.88,274.81H11.15c-6.16,0-11.15-5.18-11.15-11.56V64.12c0-6.38,4.99-11.56,11.15-11.56h217.74c6.16,0,11.15,5.18,11.15,11.56v199.14c0,6.38-4.99,11.56-11.15,11.56h0Z"/>
    <ellipse class="cls-3" cx="150.03" cy="120.28" rx="118.81" ry="120.28"/>
    <ellipse class="cls-2" cx="130.7" cy="143.58" rx="118.81" ry="120.28"/>
    <path id="punktum" d="M180.46,194.92c7.64-5.34,17.46-4.19,21.94,2.56s1.9,16.55-5.74,21.89c-7.64,5.34-17.46,4.19-21.94-2.56-4.47-6.75-1.9-16.55,5.74-21.89Z"/>
    <path id="bokstav_S" data-name="bokstav S" d="M64.81,209.3c-4.2-12.1-4.63-24.88,2.47-44.06h27.75c-3.15,9.15-4.38,17.66-5.14,23.22-.77,5.57,1.52,10.51,3.19,13.62,1.65,3.12,4.67,5.33,9.03,6.64,3.52,1.06,6.91.96,10.19-.31,3.26-1.26,6.19-3.51,8.75-6.77,2.56-3.24,4.58-7.46,6.05-12.62,1.47-5.17,1.86-10.05,1.17-14.66-.69-4.6-1.94-8.86-3.74-12.76-1.8-3.9-4.44-8.71-7.91-14.43-4.01-7-7.18-13-9.49-18-2.31-4.99-3.81-10.76-4.48-17.33-.68-6.56.1-13.8,2.36-21.72,2.89-10.16,7.37-18.68,13.42-25.56,6.05-6.87,13.24-11.49,21.56-13.86,8.32-2.36,17.34-2.08,27.07.84,13.75,4.13,21.44,10.09,24.91,20.3,3.46,10.2,2.71,27.42-4.46,46.21h-27.75c3.9-11.17,5.4-26.64,5.03-31.71-.38-5.07-3-8.33-7.86-9.79-3.36-1.01-6.52-.93-9.49.24-2.97,1.17-5.57,3.28-7.81,6.35-2.24,3.06-4.02,6.93-5.34,11.57-1.17,4.13-1.43,8.22-.76,12.25.67,4.04,1.86,7.85,3.57,11.45,1.71,3.6,4.17,8.03,7.41,13.3,4.25,7.45,7.53,13.85,9.82,19.21s3.83,11.63,4.62,18.78c.78,7.15-.05,15.03-2.5,23.65-3.04,10.68-7.81,19.58-14.29,26.69-6.49,7.12-14.13,11.88-22.91,14.29-8.78,2.41-18.05,2.15-27.77-.76-13.58-4.08-22.48-12.17-26.67-24.28h0Z"/>
    <path id="punktum-2" class="cls-1" d="M175.63,190.21c7.64-5.34,17.46-4.19,21.94,2.56,4.47,6.75,1.9,16.55-5.74,21.89-7.64,5.34-17.46,4.19-21.94-2.56-4.47-6.75-1.9-16.55,5.74-21.89Z"/>
    <path id="bokstav_S-2" data-name="bokstav S-2" class="cls-1" d="M58.81,198.4c-4.2-12.1-4.63-24.88,2.47-44.06h27.75c-3.15,9.15-4.38,17.66-5.14,23.22-.77,5.57,1.52,10.51,3.19,13.62,1.65,3.12,4.67,5.33,9.03,6.64,3.52,1.06,6.91.96,10.19-.31,3.26-1.26,6.19-3.51,8.75-6.77,2.56-3.24,4.58-7.46,6.05-12.62,1.47-5.17,1.86-10.05,1.17-14.66-.69-4.6-1.94-8.86-3.74-12.76-1.8-3.9-4.44-8.71-7.91-14.43-4.01-7-7.18-13-9.49-18-2.31-4.99-3.81-10.76-4.48-17.33-.68-6.56.1-13.8,2.36-21.72,2.89-10.16,7.37-18.68,13.42-25.56s13.24-11.49,21.56-13.86c8.32-2.36,17.34-2.08,27.07.84,13.75,4.13,21.44,10.09,24.91,20.3,3.46,10.2,2.71,27.42-4.46,46.21h-27.75c3.9-11.17,5.4-26.64,5.03-31.71-.38-5.07-3-8.33-7.86-9.79-3.36-1.01-6.52-.93-9.49.24-2.97,1.17-5.57,3.28-7.81,6.35-2.24,3.06-4.02,6.93-5.34,11.57-1.17,4.13-1.43,8.22-.76,12.25.67,4.04,1.86,7.85,3.57,11.45,1.71,3.6,4.17,8.03,7.41,13.3,4.25,7.45,7.53,13.85,9.82,19.21s3.83,11.63,4.62,18.78c.78,7.15-.05,15.03-2.5,23.65-3.04,10.68-7.81,19.58-14.29,26.69-6.49,7.12-14.13,11.88-22.91,14.29-8.78,2.41-18.05,2.15-27.77-.76-13.58-4.08-22.48-12.17-26.67-24.28h0Z"/>
  </g>
</svg>