<?xml version="1.0" encoding="UTF-8"?>
<svg id="Layer_1" data-name="Layer 1" xmlns="http://www.w3.org/2000/svg" viewBox="0 0 973.62 314.41">
  <defs>
    <style>
      .cls-1 {
        fill: #c1bef5;
      }

      .cls-2 {
        stroke: #000;
        stroke-miterlimit: 10;
      }

      .cls-3 {
        fill: #586add;
      }

      .cls-4 {
        fill: #010756;
      }
    </style>
  </defs>
  <g id="logo">
    <path d="M261.86,314.4H12.76c-7.05,0-12.76-5.92-12.76-13.22V73.36c0-7.3,5.71-13.22,12.76-13.22h249.1c7.05,0,12.76,5.92,12.76,13.22v227.83c0,7.3-5.71,13.22-12.76,13.22h0Z"/>
    <ellipse class="cls-4" cx="171.64" cy="137.61" rx="135.93" ry="137.61"/>
    <ellipse class="cls-3" cx="149.53" cy="164.27" rx="135.93" ry="137.61"/>
    <path id="punktum" d="M206.45,223c8.74-6.11,19.98-4.8,25.1,2.93s2.18,18.94-6.57,25.04c-8.74,6.11-19.98,4.8-25.1-2.93-5.12-7.72-2.18-18.94,6.57-25.04Z"/>
    <path id="bokstav_S" data-name="bokstav S" d="M74.15,239.45c-4.81-13.84-5.3-28.47,2.83-50.41h31.75c-3.6,10.47-5.01,20.2-5.88,26.57-.88,6.37,1.74,12.02,3.65,15.59,1.89,3.57,5.34,6.1,10.33,7.59,4.03,1.21,7.91,1.09,11.66-.35,3.73-1.44,7.08-4.02,10.01-7.74,2.93-3.71,5.24-8.53,6.92-14.44,1.68-5.91,2.13-11.5,1.34-16.77-.79-5.26-2.22-10.13-4.28-14.6-2.06-4.46-5.08-9.97-9.05-16.51-4.59-8.01-8.21-14.87-10.86-20.59-2.64-5.71-4.36-12.32-5.13-19.82-.78-7.5.12-15.79,2.7-24.85,3.31-11.62,8.43-21.37,15.36-29.24,6.93-7.86,15.15-13.14,24.67-15.85,9.51-2.7,19.83-2.38,30.97.96,15.73,4.72,24.53,11.54,28.5,23.22,3.96,11.67,3.1,31.38-5.1,52.86h-31.75c4.47-12.78,6.18-30.47,5.75-36.27-.44-5.8-3.43-9.53-8.99-11.2-3.84-1.15-7.46-1.06-10.86.27-3.4,1.33-6.38,3.76-8.94,7.26-2.56,3.5-4.6,7.92-6.11,13.24-1.34,4.73-1.64,9.4-.87,14.02.76,4.62,2.13,8.98,4.08,13.1,1.96,4.11,4.78,9.19,8.48,15.22,4.86,8.52,8.61,15.85,11.24,21.98,2.62,6.14,4.38,13.3,5.29,21.48.9,8.18-.06,17.2-2.86,27.05-3.48,12.22-8.93,22.4-16.35,30.54-7.43,8.14-16.16,13.59-26.21,16.35-10.05,2.75-20.65,2.46-31.77-.87-15.54-4.66-25.71-13.92-30.51-27.77h0Z"/>
    <path id="punktum-2" class="cls-1" d="M200.93,217.61c8.74-6.11,19.98-4.8,25.1,2.93s2.18,18.94-6.57,25.04c-8.74,6.11-19.98,4.8-25.1-2.93-5.12-7.72-2.18-18.94,6.57-25.04Z"/>
    <path id="bokstav_S-2" data-name="bokstav S-2" class="cls-1" d="M67.28,226.98c-4.81-13.84-5.3-28.47,2.83-50.41h31.75c-3.6,10.47-5.01,20.2-5.88,26.57-.88,6.37,1.74,12.02,3.65,15.59,1.89,3.57,5.34,6.1,10.33,7.59,4.03,1.21,7.91,1.09,11.66-.35,3.73-1.44,7.08-4.02,10.01-7.74,2.93-3.71,5.24-8.53,6.92-14.44,1.68-5.91,2.13-11.5,1.34-16.77-.79-5.26-2.22-10.13-4.28-14.6-2.06-4.46-5.08-9.97-9.05-16.51-4.59-8.01-8.21-14.87-10.86-20.59-2.64-5.71-4.36-12.32-5.13-19.82-.78-7.5.12-15.79,2.7-24.85,3.31-11.62,8.43-21.37,15.36-29.24,6.93-7.86,15.15-13.14,24.67-15.85,9.51-2.7,19.83-2.38,30.97.96,15.73,4.72,24.53,11.54,28.5,23.22,3.96,11.67,3.1,31.38-5.1,52.86h-31.75c4.47-12.78,6.18-30.47,5.75-36.27-.44-5.8-3.43-9.53-8.99-11.2-3.84-1.15-7.46-1.06-10.86.27-3.4,1.33-6.38,3.76-8.94,7.26-2.56,3.5-4.6,7.92-6.11,13.24-1.34,4.73-1.64,9.4-.87,14.02.76,4.62,2.13,8.98,4.08,13.1,1.96,4.11,4.78,9.19,8.48,15.22,4.86,8.52,8.61,15.85,11.24,21.98,2.62,6.14,4.38,13.3,5.29,21.48.9,8.18-.06,17.2-2.86,27.05-3.48,12.22-8.93,22.4-16.35,30.54-7.43,8.14-16.16,13.59-26.21,16.35-10.05,2.75-20.65,2.46-31.77-.87-15.54-4.66-25.71-13.92-30.51-27.77h0Z"/>
  </g>
  <g>
    <path class="cls-2" d="M315.48,175.46h14.24l-9.22,76.61h-14.24l9.22-76.61ZM317.92,149.27h15.46l-1.9,16.44h-15.46l1.9-16.44Z"/>
    <path class="cls-2" d="M338.53,175.46h14.38l-1.08,64.07,14.24-64.07h14.51l-21.02,76.61h-18.72l-2.31-76.61Z"/>
    <path class="cls-2" d="M389.19,251.16c-2.67-2-4.63-4.9-5.9-8.71-1.27-3.81-1.9-8.45-1.9-13.93,0-11.61,1.11-21.54,3.32-29.81,2.21-8.26,5.4-14.56,9.56-18.87,4.16-4.32,9.18-6.48,15.06-6.48,5.33,0,9.34,1.63,12,4.88,2.67,3.25,4.25,8.01,4.75,14.28.5,6.27.16,14.28-1.02,24.03h-29.03l1.36-11.14h14.38c.36-4.18.45-7.68.27-10.52-.18-2.83-.68-5.04-1.49-6.62-.81-1.58-1.99-2.37-3.53-2.37s-2.94.79-4.2,2.37c-1.27,1.58-2.35,3.81-3.26,6.69-.9,2.88-1.63,6.36-2.17,10.45l-1.36,11.14c-.45,5.39-.63,9.82-.54,13.3.09,3.48.56,6.2,1.42,8.15.86,1.95,2.19,2.93,4,2.93,2.17,0,3.98-1.3,5.43-3.9,1.45-2.6,2.58-6.41,3.39-11.42l14.65,1.81c-1.18,5.11-2.78,9.63-4.81,13.58-2.03,3.95-4.73,7.13-8.07,9.54-3.35,2.41-7.42,3.62-12.21,3.62-4.07,0-7.44-1-10.1-2.99Z"/>
    <path class="cls-2" d="M440.66,175.46h13.43l-1.09,8.08c1.63-3.62,3.26-6.22,4.88-7.8,1.63-1.58,3.57-2.37,5.83-2.37,1.17,0,2.17.16,2.98.49.81.33,1.63.86,2.44,1.6l-2.85,15.88c-.81-.93-1.65-1.6-2.51-2.02-.86-.42-1.88-.63-3.05-.63-1.63,0-3.03.51-4.2,1.53-1.18,1.02-2.24,2.86-3.19,5.5-.95,2.65-1.7,6.34-2.24,11.07l-5.43,45.27h-14.24l9.22-76.61Z"/>
    <path class="cls-2" d="M471.86,175.46h34.59l-1.49,12.54h-34.59l1.49-12.54ZM474.98,248.66c-2.44-3.67-3.26-9.03-2.44-16.09l8.27-69.64,15.19-8.36-9.22,78c-.36,2.88-.07,4.99.88,6.34.95,1.35,2.37,2.02,4.27,2.02,1.08,0,2.19-.19,3.32-.56,1.13-.37,2.1-.79,2.92-1.25l.41-.28.14,13.23c-1.36.65-2.89,1.16-4.61,1.53-1.72.37-3.84.56-6.38.56-6.06,0-10.31-1.83-12.75-5.5Z"/>
    <path class="cls-2" d="M544.97,154.57h23.06l-1.49,80.79,18.45-80.79h22.38l-11.66,97.5h-14.24l9.63-80.79-18.99,80.79h-15.19l.27-80.79-9.63,80.79h-14.24l11.67-97.5Z"/>
    <path class="cls-2" d="M608.71,234.52h14.51l-2.03,17.55h-14.51l2.04-17.55Z"/>
    <path class="cls-2" d="M698.64,205.41h-18.99l-5.56,46.66h-14.92l11.67-97.5h14.92l-4.48,37.61h18.99l4.48-37.61h14.92l-11.66,97.5h-14.92l5.56-46.66Z"/>
    <path class="cls-2" d="M723.46,249.56c-2.44-3.06-3.66-7.47-3.66-13.23,0-9.56,2.28-17.22,6.85-22.98,4.56-5.76,10.69-8.64,18.38-8.64h8.41l-1.36,11.14h-7.32c-3.17,0-5.72,1.65-7.66,4.95-1.95,3.3-2.92,7.68-2.92,13.16,0,2.51.38,4.3,1.15,5.36.77,1.07,1.92,1.6,3.46,1.6.99,0,2.06-.42,3.19-1.25,1.13-.84,2.15-2.3,3.05-4.39.9-2.09,1.58-4.94,2.04-8.57l.13,17.83c-1.08,2.23-2.35,4.06-3.8,5.5-1.45,1.44-3.01,2.48-4.68,3.13-1.67.65-3.46.97-5.36.97-4.16,0-7.46-1.53-9.9-4.6ZM749.77,252.07c-1.63-1.39-2.49-3.9-2.58-7.52l-.13-17.83,3.25-27.3c.54-4.08.27-7.24-.81-9.47-1.09-2.23-3.17-3.34-6.24-3.34-2.35,0-4.57.56-6.65,1.67-2.08,1.11-4.25,2.88-6.51,5.29l-3.12-13.23c3.25-2.32,6.62-4.06,10.1-5.22,3.48-1.16,7.12-1.74,10.92-1.74,6.24,0,10.83,2.07,13.77,6.2,2.94,4.13,3.91,10.29,2.92,18.46l-4.75,39.7c-.09,1.11.02,1.93.34,2.44.32.51.88.77,1.7.77.45,0,.95-.12,1.49-.35.54-.23,1.17-.63,1.9-1.18v12.67c-.45.18-.91.37-1.36.56-2.44,1.02-4.93,1.53-7.46,1.53-2.9,0-5.15-.7-6.78-2.09Z"/>
    <path class="cls-2" d="M781.37,175.46h13.56l-.95,6.96c1.72-3.16,3.68-5.45,5.9-6.89,2.21-1.44,4.9-2.16,8.07-2.16,4.7,0,8.02,1.97,9.97,5.92,1.94,3.95,2.42,10.1,1.42,18.46l-6.51,54.32h-14.24l5.97-49.45c.45-4.08.61-7.29.47-9.61-.14-2.32-.57-3.97-1.29-4.94-.73-.98-1.76-1.46-3.12-1.46s-2.56.49-3.59,1.46c-1.04.97-1.97,2.62-2.78,4.94-.81,2.32-1.45,5.53-1.9,9.61l-5.97,49.45h-14.24l9.22-76.61Z"/>
    <path class="cls-2" d="M829.79,247.12c-3.71-4.69-5.42-11.12-5.15-19.29l14.11-1.95c-.27,4.74.18,8.43,1.36,11.07,1.17,2.65,2.94,3.97,5.29,3.97s4.27-.93,5.76-2.79c1.49-1.86,2.24-4.36,2.24-7.52,0-1.95-.41-3.71-1.22-5.29-.81-1.58-1.83-2.99-3.05-4.25s-2.92-2.81-5.09-4.67c-2.8-2.32-5.11-4.46-6.92-6.41-1.81-1.95-3.35-4.39-4.61-7.31-1.27-2.92-1.9-6.34-1.9-10.24,0-7.24,2.08-12.93,6.24-17.06,4.16-4.13,9.77-6.2,16.82-6.2,5.79,0,10.22,2,13.29,5.99,3.07,3.99,4.57,10.22,4.48,18.67l-13.97,1.25c.18-4.36-.2-7.57-1.15-9.61-.95-2.04-2.42-3.06-4.41-3.06s-3.64.91-4.95,2.72c-1.31,1.81-1.97,4.11-1.97,6.9,0,1.76.38,3.39,1.15,4.88.77,1.49,1.76,2.83,2.98,4.04,1.22,1.21,2.87,2.69,4.95,4.46,2.89,2.51,5.24,4.74,7.05,6.69,1.81,1.95,3.37,4.39,4.68,7.31,1.31,2.93,1.97,6.34,1.97,10.24,0,7.71-1.99,13.72-5.97,18.04-3.98,4.32-9.41,6.48-16.28,6.48s-12.03-2.34-15.73-7.03Z"/>
    <path class="cls-2" d="M883.16,251.16c-2.67-2-4.63-4.9-5.9-8.71-1.27-3.81-1.9-8.45-1.9-13.93,0-11.61,1.11-21.54,3.32-29.81,2.21-8.26,5.4-14.56,9.56-18.87,4.16-4.32,9.18-6.48,15.06-6.48,5.33,0,9.33,1.63,12,4.88,2.67,3.25,4.25,8.01,4.75,14.28.5,6.27.16,14.28-1.02,24.03h-29.03l1.36-11.14h14.38c.36-4.18.45-7.68.27-10.52-.18-2.83-.68-5.04-1.49-6.62-.81-1.58-1.99-2.37-3.53-2.37s-2.94.79-4.2,2.37c-1.27,1.58-2.35,3.81-3.26,6.69-.9,2.88-1.63,6.36-2.17,10.45l-1.36,11.14c-.45,5.39-.63,9.82-.54,13.3.09,3.48.56,6.2,1.42,8.15.86,1.95,2.19,2.93,4,2.93,2.17,0,3.98-1.3,5.43-3.9,1.45-2.6,2.58-6.41,3.39-11.42l14.65,1.81c-1.18,5.11-2.78,9.63-4.81,13.58-2.04,3.95-4.73,7.13-8.07,9.54-3.35,2.41-7.42,3.62-12.21,3.62-4.07,0-7.44-1-10.11-2.99Z"/>
    <path class="cls-2" d="M934.64,175.46h13.56l-.95,6.96c1.72-3.16,3.68-5.45,5.9-6.89,2.21-1.44,4.9-2.16,8.07-2.16,4.7,0,8.02,1.97,9.97,5.92,1.94,3.95,2.42,10.1,1.42,18.46l-6.51,54.32h-14.24l5.97-49.45c.45-4.08.61-7.29.47-9.61-.14-2.32-.57-3.97-1.29-4.94-.73-.98-1.76-1.46-3.12-1.46s-2.56.49-3.59,1.46c-1.04.97-1.97,2.62-2.78,4.94-.81,2.32-1.45,5.53-1.9,9.61l-5.97,49.45h-14.24l9.22-76.61Z"/>
  </g>
  <g>
    <path class="cls-1" d="M309.11,171.26h14.24l-9.22,76.61h-14.24l9.22-76.61ZM311.55,145.08h15.46l-1.9,16.44h-15.46l1.9-16.44Z"/>
    <path class="cls-1" d="M332.17,171.26h14.38l-1.08,64.07,14.24-64.07h14.51l-21.02,76.61h-18.72l-2.31-76.61Z"/>
    <path class="cls-1" d="M382.83,246.97c-2.67-2-4.63-4.9-5.9-8.71-1.27-3.81-1.9-8.45-1.9-13.93,0-11.61,1.11-21.54,3.32-29.81,2.21-8.26,5.4-14.56,9.56-18.87,4.16-4.32,9.18-6.48,15.06-6.48,5.33,0,9.34,1.63,12,4.88,2.67,3.25,4.25,8.01,4.75,14.28.5,6.27.16,14.28-1.02,24.03h-29.03l1.36-11.14h14.38c.36-4.18.45-7.68.27-10.52-.18-2.83-.68-5.04-1.49-6.62-.81-1.58-1.99-2.37-3.53-2.37s-2.94.79-4.2,2.37c-1.27,1.58-2.35,3.81-3.26,6.69-.9,2.88-1.63,6.36-2.17,10.45l-1.36,11.14c-.45,5.39-.63,9.82-.54,13.3.09,3.48.56,6.2,1.42,8.15.86,1.95,2.19,2.93,4,2.93,2.17,0,3.98-1.3,5.43-3.9,1.45-2.6,2.58-6.41,3.39-11.42l14.65,1.81c-1.18,5.11-2.78,9.63-4.81,13.58-2.03,3.95-4.73,7.13-8.07,9.54-3.35,2.41-7.42,3.62-12.21,3.62-4.07,0-7.44-1-10.1-2.99Z"/>
    <path class="cls-1" d="M434.3,171.26h13.43l-1.09,8.08c1.63-3.62,3.26-6.22,4.88-7.8,1.63-1.58,3.57-2.37,5.83-2.37,1.17,0,2.17.16,2.98.49.81.33,1.63.86,2.44,1.6l-2.85,15.88c-.81-.93-1.65-1.6-2.51-2.02-.86-.42-1.88-.63-3.05-.63-1.63,0-3.03.51-4.2,1.53-1.18,1.02-2.24,2.86-3.19,5.5-.95,2.65-1.7,6.34-2.24,11.07l-5.43,45.27h-14.24l9.22-76.61Z"/>
    <path class="cls-1" d="M465.49,171.26h34.59l-1.49,12.54h-34.59l1.49-12.54ZM468.61,244.46c-2.44-3.67-3.26-9.03-2.44-16.09l8.27-69.64,15.19-8.36-9.22,78c-.36,2.88-.07,4.99.88,6.34.95,1.35,2.37,2.02,4.27,2.02,1.08,0,2.19-.19,3.32-.56,1.13-.37,2.1-.79,2.92-1.25l.41-.28.14,13.23c-1.36.65-2.89,1.16-4.61,1.53-1.72.37-3.84.56-6.38.56-6.06,0-10.31-1.83-12.75-5.5Z"/>
    <path class="cls-1" d="M538.6,150.37h23.06l-1.49,80.79,18.45-80.79h22.38l-11.66,97.5h-14.24l9.63-80.79-18.99,80.79h-15.19l.27-80.79-9.63,80.79h-14.24l11.67-97.5Z"/>
    <path class="cls-1" d="M602.35,230.32h14.51l-2.03,17.55h-14.51l2.04-17.55Z"/>
    <path class="cls-1" d="M692.27,201.21h-18.99l-5.56,46.66h-14.92l11.67-97.5h14.92l-4.48,37.61h18.99l4.48-37.61h14.92l-11.66,97.5h-14.92l5.56-46.66Z"/>
    <path class="cls-1" d="M717.09,245.36c-2.44-3.06-3.66-7.47-3.66-13.23,0-9.56,2.28-17.22,6.85-22.98,4.56-5.76,10.69-8.64,18.38-8.64h8.41l-1.36,11.14h-7.32c-3.17,0-5.72,1.65-7.66,4.95-1.95,3.3-2.92,7.68-2.92,13.16,0,2.51.38,4.3,1.15,5.36.77,1.07,1.92,1.6,3.46,1.6.99,0,2.06-.42,3.19-1.25,1.13-.84,2.15-2.3,3.05-4.39.9-2.09,1.58-4.94,2.04-8.57l.13,17.83c-1.08,2.23-2.35,4.06-3.8,5.5-1.45,1.44-3.01,2.48-4.68,3.13-1.67.65-3.46.97-5.36.97-4.16,0-7.46-1.53-9.9-4.6ZM743.41,247.87c-1.63-1.39-2.49-3.9-2.58-7.52l-.13-17.83,3.25-27.3c.54-4.08.27-7.24-.81-9.47-1.09-2.23-3.17-3.34-6.24-3.34-2.35,0-4.57.56-6.65,1.67-2.08,1.11-4.25,2.88-6.51,5.29l-3.12-13.23c3.25-2.32,6.62-4.06,10.1-5.22,3.48-1.16,7.12-1.74,10.92-1.74,6.24,0,10.83,2.07,13.77,6.2,2.94,4.13,3.91,10.29,2.92,18.46l-4.75,39.7c-.09,1.11.02,1.93.34,2.44.32.51.88.77,1.7.77.45,0,.95-.12,1.49-.35.54-.23,1.17-.63,1.9-1.18v12.67c-.45.18-.91.37-1.36.56-2.44,1.02-4.93,1.53-7.46,1.53-2.9,0-5.15-.7-6.78-2.09Z"/>
    <path class="cls-1" d="M775.01,171.26h13.56l-.95,6.96c1.72-3.16,3.68-5.45,5.9-6.89,2.21-1.44,4.9-2.16,8.07-2.16,4.7,0,8.02,1.97,9.97,5.92,1.94,3.95,2.42,10.1,1.42,18.46l-6.51,54.32h-14.24l5.97-49.45c.45-4.08.61-7.29.47-9.61-.14-2.32-.57-3.97-1.29-4.94-.73-.98-1.76-1.46-3.12-1.46s-2.56.49-3.59,1.46c-1.04.97-1.97,2.62-2.78,4.94-.81,2.32-1.45,5.53-1.9,9.61l-5.97,49.45h-14.24l9.22-76.61Z"/>
    <path class="cls-1" d="M823.43,242.93c-3.71-4.69-5.42-11.12-5.15-19.29l14.11-1.95c-.27,4.74.18,8.43,1.36,11.07,1.17,2.65,2.94,3.97,5.29,3.97s4.27-.93,5.76-2.79c1.49-1.86,2.24-4.36,2.24-7.52,0-1.95-.41-3.71-1.22-5.29-.81-1.58-1.83-2.99-3.05-4.25s-2.92-2.81-5.09-4.67c-2.8-2.32-5.11-4.46-6.92-6.41-1.81-1.95-3.35-4.39-4.61-7.31-1.27-2.92-1.9-6.34-1.9-10.24,0-7.24,2.08-12.93,6.24-17.06,4.16-4.13,9.77-6.2,16.82-6.2,5.79,0,10.22,2,13.29,5.99,3.07,3.99,4.57,10.22,4.48,18.67l-13.97,1.25c.18-4.36-.2-7.57-1.15-9.61-.95-2.04-2.42-3.06-4.41-3.06s-3.64.91-4.95,2.72c-1.31,1.81-1.97,4.11-1.97,6.9,0,1.76.38,3.39,1.15,4.88.77,1.49,1.76,2.83,2.98,4.04,1.22,1.21,2.87,2.69,4.95,4.46,2.89,2.51,5.24,4.74,7.05,6.69,1.81,1.95,3.37,4.39,4.68,7.31,1.31,2.93,1.97,6.34,1.97,10.24,0,7.71-1.99,13.72-5.97,18.04-3.98,4.32-9.41,6.48-16.28,6.48s-12.03-2.34-15.73-7.03Z"/>
    <path class="cls-1" d="M876.8,246.97c-2.67-2-4.63-4.9-5.9-8.71-1.27-3.81-1.9-8.45-1.9-13.93,0-11.61,1.11-21.54,3.32-29.81,2.21-8.26,5.4-14.56,9.56-18.87,4.16-4.32,9.18-6.48,15.06-6.48,5.33,0,9.33,1.63,12,4.88,2.67,3.25,4.25,8.01,4.75,14.28.5,6.27.16,14.28-1.02,24.03h-29.03l1.36-11.14h14.38c.36-4.18.45-7.68.27-10.52-.18-2.83-.68-5.04-1.49-6.62-.81-1.58-1.99-2.37-3.53-2.37s-2.94.79-4.2,2.37c-1.27,1.58-2.35,3.81-3.26,6.69-.9,2.88-1.63,6.36-2.17,10.45l-1.36,11.14c-.45,5.39-.63,9.82-.54,13.3.09,3.48.56,6.2,1.42,8.15.86,1.95,2.19,2.93,4,2.93,2.17,0,3.98-1.3,5.43-3.9,1.45-2.6,2.58-6.41,3.39-11.42l14.65,1.81c-1.18,5.11-2.78,9.63-4.81,13.58-2.04,3.95-4.73,7.13-8.07,9.54-3.35,2.41-7.42,3.62-12.21,3.62-4.07,0-7.44-1-10.11-2.99Z"/>
    <path class="cls-1" d="M928.27,171.26h13.56l-.95,6.96c1.72-3.16,3.68-5.45,5.9-6.89,2.21-1.44,4.9-2.16,8.07-2.16,4.7,0,8.02,1.97,9.97,5.92,1.94,3.95,2.42,10.1,1.42,18.46l-6.51,54.32h-14.24l5.97-49.45c.45-4.08.61-7.29.47-9.61-.14-2.32-.57-3.97-1.29-4.94-.73-.98-1.76-1.46-3.12-1.46s-2.56.49-3.59,1.46c-1.04.97-1.97,2.62-2.78,4.94-.81,2.32-1.45,5.53-1.9,9.61l-5.97,49.45h-14.24l9.22-76.61Z"/>
  </g>
</svg>